<?xml version="1.0" encoding="UTF-8" standalone="no"?>
<!-- Created with Inkscape (http://www.inkscape.org/) -->

<svg
   xmlns:dc="http://purl.org/dc/elements/1.1/"
   xmlns:cc="http://creativecommons.org/ns#"
   xmlns:rdf="http://www.w3.org/1999/02/22-rdf-syntax-ns#"
   xmlns:svg="http://www.w3.org/2000/svg"
   xmlns="http://www.w3.org/2000/svg"
   xmlns:sodipodi="http://sodipodi.sourceforge.net/DTD/sodipodi-0.dtd"
   xmlns:inkscape="http://www.inkscape.org/namespaces/inkscape"
   width="100"
   height="75.346535"
   id="svg3318"
   sodipodi:version="0.32"
   inkscape:version="0.48.2 r9819"
   version="1.0"
   sodipodi:docname="BBC_News.svg"
   inkscape:output_extension="org.inkscape.output.svg.inkscape">
  <defs
     id="defs3320">
    <inkscape:perspective
       sodipodi:type="inkscape:persp3d"
       inkscape:vp_x="0 : 526.18109 : 1"
       inkscape:vp_y="0 : 1000 : 0"
       inkscape:vp_z="744.09448 : 526.18109 : 1"
       inkscape:persp3d-origin="372.04724 : 350.78739 : 1"
       id="perspective3326" />
    <inkscape:perspective
       id="perspective3372"
       inkscape:persp3d-origin="372.04724 : 350.78739 : 1"
       inkscape:vp_z="744.09448 : 526.18109 : 1"
       inkscape:vp_y="0 : 1000 : 0"
       inkscape:vp_x="0 : 526.18109 : 1"
       sodipodi:type="inkscape:persp3d" />
  </defs>
  <sodipodi:namedview
     id="base"
     pagecolor="#ffffff"
     bordercolor="#666666"
     borderopacity="1.0"
     gridtolerance="10000"
     guidetolerance="10"
     objecttolerance="10"
     inkscape:pageopacity="0.0"
     inkscape:pageshadow="2"
     inkscape:zoom="4.235"
     inkscape:cx="62.862455"
     inkscape:cy="25.267774"
     inkscape:document-units="px"
     inkscape:current-layer="layer1"
     showgrid="false"
     inkscape:window-width="1920"
     inkscape:window-height="1028"
     inkscape:window-x="-8"
     inkscape:window-y="-8"
     fit-margin-left="0.2"
     fit-margin-bottom="0.2"
     fit-margin-top="0.2"
     fit-margin-right="0.2"
     inkscape:window-maximized="1">
    <inkscape:grid
       type="xygrid"
       id="grid3378"
       visible="true"
       enabled="true"
       empspacing="5"
       snapvisiblegridlinesonly="true" />
  </sodipodi:namedview>
  <metadata
     id="metadata3323">
    <rdf:RDF>
      <cc:Work
         rdf:about="">
        <dc:format>image/svg+xml</dc:format>
        <dc:type
           rdf:resource="http://purl.org/dc/dcmitype/StillImage" />
      </cc:Work>
    </rdf:RDF>
  </metadata>
  <g
     inkscape:label="Layer 1"
     inkscape:groupmode="layer"
     id="layer1"
     transform="translate(-230.18008,-304.71773)">
    <g
       id="g3444"
       transform="matrix(0.21012658,0,0,0.21012658,202.01298,257.14288)">
      <rect
         y="227.36223"
         x="135.00006"
         height="356.67328"
         width="474"
         id="rect3442"
         style="fill:#9d0a0e;fill-opacity:1;fill-rule:evenodd;stroke:none" />
      <g
         style="fill:#ffffff"
         transform="matrix(0.5295813,0,0,0.5295813,114.33135,291.84582)"
         id="g3414">
        <path
           d="m 509.03032,114.50075 c -0.0121,3.19225 -0.99153,6.40867 -3.84521,8.90564 -2.84763,2.50301 -7.77505,4.40748 -15.93704,4.40748 l -16.42677,0 0,-26.34208 15.69521,0 c 7.32161,0 12.51506,1.4873 15.77381,3.80289 3.24666,2.33372 4.71581,5.399 4.74,9.22607"
           style="fill:#ffffff;fill-opacity:1;fill-rule:nonzero;stroke:none"
           id="path2436"
           inkscape:connector-curvature="0" />
        <path
           d="m 495.72325,82.959185 c 3.05923,-2.200715 4.53444,-5.32041 4.55258,-9.993906 -0.0121,-3.210384 -0.93108,-5.961277 -3.24062,-8.010844 -2.31558,-2.055613 -6.24543,-3.51268 -12.59365,-3.51268 l -11.62026,0 0,24.963604 7.97457,0 c 6.90444,0 11.85,-1.227322 14.92738,-3.446174"
           style="fill:#ffffff;fill-opacity:1;fill-rule:nonzero;stroke:none"
           id="path2438"
           inkscape:connector-curvature="0" />
        <path
           d="m 526.75091,116.43544 c 0.0423,-12.17648 -8.06526,-21.432783 -21.04585,-24.987784 3.50664,-1.789592 6.27567,-3.978215 8.3071,-6.644466 2.70857,-3.579184 4.00844,-7.962476 3.9903,-13.077325 0.0181,-6.275665 -2.45464,-12.678294 -7.75691,-17.472709 -5.30832,-4.788368 -13.36149,-7.889925 -24.35297,-7.883879 l -30.35656,0 0,96.529163 35.61047,0 0.0181,0 c 12.70853,0 21.63231,-3.44618 27.37593,-8.55498 5.74967,-5.08462 8.21641,-11.75932 8.21036,-17.90802 m 33.83901,45.16907 -142.42373,0 0,-134.025953 142.42373,0 0,134.025953 z"
           style="fill:#ffffff;fill-opacity:1;fill-rule:nonzero;stroke:none"
           id="path2440"
           inkscape:connector-curvature="0" />
        <path
           d="m 331.61884,82.959185 c 3.05319,-2.200715 4.53444,-5.32041 4.55862,-9.993906 -0.006,-3.210384 -0.93107,-5.961277 -3.24061,-8.010844 -2.32163,-2.055613 -6.25148,-3.51268 -12.60574,-3.51268 l -11.60817,0 0,24.963604 7.97457,0 c 6.8984,0 11.84396,-1.227322 14.92133,-3.446174"
           style="fill:#ffffff;fill-opacity:1;fill-rule:nonzero;stroke:none"
           id="path2442"
           inkscape:connector-curvature="0" />
        <path
           d="m 340.18591,105.27468 c -3.25271,-2.31559 -8.4522,-3.80289 -15.76776,-3.80289 l -15.69521,0 0,26.34208 16.42677,0 c 8.16199,0 13.07732,-1.90447 15.931,-4.40748 2.85367,-2.49697 3.83916,-5.71339 3.8452,-8.90564 -0.0242,-3.82707 -1.49334,-6.89235 -4.74,-9.22607"
           style="fill:#ffffff;fill-opacity:1;fill-rule:nonzero;stroke:none"
           id="path2444"
           inkscape:connector-curvature="0" />
        <path
           d="m 362.65255,116.43544 c 0.0423,-12.17648 -8.07735,-21.432783 -21.0398,-24.987784 3.49454,-1.789592 6.26357,-3.978215 8.28895,-6.644466 2.72067,-3.579184 4.00845,-7.962476 4.0024,-13.077325 0.006,-6.275665 -2.46069,-12.678294 -7.76296,-17.472709 -5.30227,-4.788368 -13.35544,-7.889925 -24.34692,-7.883879 l -30.36261,0 0,96.529163 35.60442,0 0.0242,0 c 12.71457,0 21.6323,-3.44618 27.37592,-8.55498 5.74363,-5.08462 8.2285,-11.75932 8.21641,-17.90802 m 33.83901,45.16907 -142.41769,0 0,-134.025953 142.41769,0 0,134.025953 z"
           style="fill:#ffffff;fill-opacity:1;fill-rule:nonzero;stroke:none"
           id="path2446"
           inkscape:connector-curvature="0" />
        <path
           d="m 696.41152,117.05817 -2.28536,1.39661 c -11.02776,6.73516 -23.02286,10.34457 -33.91761,10.33852 -23.32516,-0.0907 -38.6818,-13.91166 -38.74226,-34.020388 0.0242,-19.679469 16.06401,-34.244091 38.14976,-34.292458 11.25145,0.006 21.43883,2.914134 33.54881,9.552554 l 2.2249,1.221276 0,-17.962429 -0.95526,-0.374847 c -13.65169,-5.386915 -24.226,-7.787145 -34.6673,-7.781099 -16.14866,-0.006 -30.15705,5.326456 -40.13887,14.371152 -9.97577,9.050742 -15.90681,21.825771 -15.89472,36.499219 0.006,10.22365 4.22005,22.20062 13.25266,31.71085 9.00237,9.51023 22.87776,16.43886 41.90427,16.43281 l 0.0665,0 c 15.77985,0 26.72297,-3.51268 36.61409,-8.39174 l 0.84039,-0.41112 0,-18.28891 z m 28.28281,44.54634 -142.41769,0 0,-134.025953 142.41769,0 0,134.025953 z"
           style="fill:#ffffff;fill-opacity:1;fill-rule:nonzero;stroke:none"
           id="path2448"
           inkscape:connector-curvature="0" />
      </g>
      <g
         style="fill:#ffffff"
         transform="matrix(0.5619285,0,0,0.5619285,97.98875,174.09319)"
         id="g3431">
        <path
           d="m 303.26952,432.05665 20.29011,0 0,149.1468 -18.36751,0 -99.7214,-114.87248 0,114.87248 -20.06641,0 0,-149.1468 17.29133,0 100.57388,115.83983 0,-115.83983 z"
           style="fill:#ffffff;fill-opacity:1;fill-rule:nonzero;stroke:none"
           id="path2418"
           inkscape:connector-curvature="0" />
        <path
           d="m 362.04191,432.05665 84.55824,0 0,18.99628 -63.20405,0 0,45.48346 61.06984,0 0,19.11115 -61.06984,0 0,46.34198 65.22943,0 0,19.00232 -86.58362,0 0,-148.93519 z"
           style="fill:#ffffff;fill-opacity:1;fill-rule:nonzero;stroke:none"
           id="path2420"
           inkscape:connector-curvature="0" />
        <path
           d="m 674.49506,432.05665 21.29373,0 -60.30806,149.79372 -4.69163,0 -48.76639,-121.29325 -49.27425,121.29325 -4.58281,0 -60.11458,-149.79372 21.51139,0 41.10016,102.81087 41.38432,-102.81087 20.18733,0 41.57174,102.81087 40.68905,-102.81087 z"
           style="fill:#ffffff;fill-opacity:1;fill-rule:nonzero;stroke:none"
           id="path2422"
           inkscape:connector-curvature="0" />
        <path
           d="m 753.64824,518.71282 -16.22725,-9.86089 c -10.18133,-6.21521 -17.42434,-12.32763 -21.72903,-18.34332 -4.3047,-6.01569 -6.46309,-12.93827 -6.46309,-20.76774 0,-11.74722 4.07495,-21.28164 12.23089,-28.60929 8.14386,-7.3337 18.73631,-11.00358 31.76527,-11.00358 12.44855,0 23.87533,3.50059 34.27432,10.48967 l 0,24.2381 c -10.74965,-10.33853 -22.32154,-15.50779 -34.70358,-15.50779 -6.977,0 -12.70853,1.61426 -17.1946,4.84278 -4.48003,3.22248 -6.72911,7.35184 -6.72911,12.38809 0,4.46189 1.65658,8.65172 4.95766,12.54529 3.30711,3.90566 8.61543,7.99875 15.93704,12.27926 l 16.31189,9.65534 c 18.19218,10.87056 27.28524,24.70363 27.28524,41.49919 0,11.95883 -4.0024,21.67462 -12.0072,29.14738 -8.01084,7.47276 -18.42192,11.20309 -31.23322,11.20309 -14.72786,0 -28.14376,-4.5163 -40.24769,-13.57914 l 0,-27.12199 c 11.52352,14.61299 24.87292,21.91646 40.03608,21.91646 6.69284,0 12.26113,-1.86215 16.71093,-5.58643 4.44979,-3.72429 6.67469,-8.38569 6.67469,-13.99026 0,-9.07493 -6.55378,-17.68432 -19.64924,-25.83422"
           style="fill:#ffffff;fill-opacity:1;fill-rule:nonzero;stroke:none"
           id="path2424"
           inkscape:connector-curvature="0" />
      </g>
    </g>
  </g>
</svg>
